<?xml version="1.0" standalone="no"?>
<svg xmlns:xlink="http://www.w3.org/1999/xlink" id="wave" style="transform:rotate(0deg); transition: 0.3s" viewBox="0 0 1440 250" version="1.1" xmlns="http://www.w3.org/2000/svg"><defs><linearGradient id="sw-gradient-0" x1="0" x2="0" y1="1" y2="0"><stop stop-color="rgba(202, 183, 151, 1)" offset="0%"/><stop stop-color="rgba(201, 182, 150, 1)" offset="100%"/></linearGradient></defs><path style="transform:translate(0, 0px); opacity:1" fill="url(#sw-gradient-0)" d="M0,150L240,125C480,100,960,50,1440,45.8C1920,42,2400,83,2880,95.8C3360,108,3840,92,4320,79.2C4800,67,5280,58,5760,62.5C6240,67,6720,83,7200,83.3C7680,83,8160,67,8640,87.5C9120,108,9600,167,10080,170.8C10560,175,11040,125,11520,108.3C12000,92,12480,108,12960,129.2C13440,150,13920,175,14400,175C14880,175,15360,150,15840,141.7C16320,133,16800,142,17280,137.5C17760,133,18240,117,18720,125C19200,133,19680,167,20160,170.8C20640,175,21120,150,21600,120.8C22080,92,22560,58,23040,50C23520,42,24000,58,24480,75C24960,92,25440,108,25920,125C26400,142,26880,158,27360,145.8C27840,133,28320,92,28800,75C29280,58,29760,67,30240,58.3C30720,50,31200,25,31680,45.8C32160,67,32640,133,33120,133.3C33600,133,34080,67,34320,33.3L34560,0L34560,250L34320,250C34080,250,33600,250,33120,250C32640,250,32160,250,31680,250C31200,250,30720,250,30240,250C29760,250,29280,250,28800,250C28320,250,27840,250,27360,250C26880,250,26400,250,25920,250C25440,250,24960,250,24480,250C24000,250,23520,250,23040,250C22560,250,22080,250,21600,250C21120,250,20640,250,20160,250C19680,250,19200,250,18720,250C18240,250,17760,250,17280,250C16800,250,16320,250,15840,250C15360,250,14880,250,14400,250C13920,250,13440,250,12960,250C12480,250,12000,250,11520,250C11040,250,10560,250,10080,250C9600,250,9120,250,8640,250C8160,250,7680,250,7200,250C6720,250,6240,250,5760,250C5280,250,4800,250,4320,250C3840,250,3360,250,2880,250C2400,250,1920,250,1440,250C960,250,480,250,240,250L0,250Z"/></svg>