<?xml version="1.0" standalone="no"?>
<svg xmlns:xlink="http://www.w3.org/1999/xlink" id="wave" style="transform:rotate(0deg); transition: 0.3s" viewBox="0 0 1440 490" version="1.1" xmlns="http://www.w3.org/2000/svg"><defs><linearGradient id="sw-gradient-0" x1="0" x2="0" y1="1" y2="0"><stop stop-color="rgba(127.82, 90.097, 77.982, 1)" offset="0%"/><stop stop-color="rgba(174.694, 191.57, 50.901, 1)" offset="100%"/></linearGradient></defs><path style="transform:translate(0, 0px); opacity:1" fill="url(#sw-gradient-0)" d="M0,0L480,441L960,147L1440,0L1920,196L2400,392L2880,392L3360,245L3840,392L4320,294L4800,441L5280,0L5760,0L6240,98L6720,147L7200,0L7680,441L8160,0L8640,441L9120,147L9600,441L10080,392L10560,441L11040,98L11520,49L11520,490L11040,490L10560,490L10080,490L9600,490L9120,490L8640,490L8160,490L7680,490L7200,490L6720,490L6240,490L5760,490L5280,490L4800,490L4320,490L3840,490L3360,490L2880,490L2400,490L1920,490L1440,490L960,490L480,490L0,490Z"/><defs><linearGradient id="sw-gradient-1" x1="0" x2="0" y1="1" y2="0"><stop stop-color="rgba(62, 243, 74.39, 1)" offset="0%"/><stop stop-color="rgba(64.07, 60.12, 51.387, 1)" offset="100%"/></linearGradient></defs><path style="transform:translate(0, 50px); opacity:0.9" fill="url(#sw-gradient-1)" d="M0,98L480,245L960,392L1440,441L1920,147L2400,147L2880,294L3360,392L3840,392L4320,147L4800,196L5280,392L5760,196L6240,147L6720,441L7200,392L7680,294L8160,245L8640,392L9120,98L9600,0L10080,0L10560,392L11040,343L11520,49L11520,490L11040,490L10560,490L10080,490L9600,490L9120,490L8640,490L8160,490L7680,490L7200,490L6720,490L6240,490L5760,490L5280,490L4800,490L4320,490L3840,490L3360,490L2880,490L2400,490L1920,490L1440,490L960,490L480,490L0,490Z"/></svg>